# xmcd
#
# Track frame offsets:
#	150
#	15367
#	32522
#	53171
#	66980
#	87689
#	105103
#	122751
#	140014
#	158593
#	173445
#	191333
#	211895
#
# Disc length: 2967 seconds
#
# Revision: 1
# Processed by: cddbd v1.4PL0 Copyright (c) Steve Scherf et al.
# Submitted via: EasyCDDAExtractor 5.0.6
#
DISCID=9f0b950d
DTITLE=Luiz Paulo E Odilon - Volume 01
DYEAR=2003
DGENRE=Country
TTITLE0=Technocountry
TTITLE1=Eu Respiro Você
TTITLE2=Pode Ir Embora
TTITLE3=Amor Em Lua De Mel
TTITLE4=Controvérsias
TTITLE5=Sei Que Errei
TTITLE6=A Razão Dessa Viola
TTITLE7=N-A-O Til
TTITLE8=Se Você For Embora
TTITLE9=Te Perder Pra Me Encontrar
TTITLE10=Coração Tá Ocupado
TTITLE11=Fala Sério
TTITLE12=Mercedita
EXTD=
EXTT0=
EXTT1=
EXTT2=
EXTT3=
EXTT4=
EXTT5=
EXTT6=
EXTT7=
EXTT8=
EXTT9=
EXTT10=
EXTT11=
EXTT12=
PLAYORDER=
